<svg width="25" height="25" viewBox="0 0 25 25" fill="none" xmlns="http://www.w3.org/2000/svg">
<path d="M4.19043 22.6758V6.67578H8.19043C8.19043 5.57578 8.5821 4.63411 9.36543 3.85078C10.1488 3.06745 11.0904 2.67578 12.1904 2.67578C13.2904 2.67578 14.2321 3.06745 15.0154 3.85078C15.7988 4.63411 16.1904 5.57578 16.1904 6.67578H20.1904V22.6758H4.19043ZM10.1904 6.67578H14.1904C14.1904 6.12578 13.9948 5.65511 13.6034 5.26378C13.2114 4.87178 12.7404 4.67578 12.1904 4.67578C11.6404 4.67578 11.1698 4.87178 10.7784 5.26378C10.3864 5.65511 10.1904 6.12578 10.1904 6.67578ZM6.19043 20.6758H18.1904V8.67578H16.1904V11.6758H14.1904V8.67578H10.1904V11.6758H8.19043V8.67578H6.19043V20.6758Z" fill="black"/>
</svg>
