<svg width="25" height="25" viewBox="0 0 25 25" fill="none" xmlns="http://www.w3.org/2000/svg">
<path d="M10.4713 17.6763L8.92475 14.6763C8.92475 14.1458 10.6399 13.6371 10.9399 13.262C11.24 12.887 11.6469 12.6763 12.0713 12.6763C12.4956 12.6763 12.9026 12.887 13.2027 13.262C13.5027 13.6371 14.874 14.1458 14.874 14.6763L13.6713 17.6763M4.07129 7.67625L11.8569 2.81025C11.9235 2.7687 11.9969 2.74707 12.0713 2.74707C12.1457 2.74707 12.2191 2.7687 12.2857 2.81025L20.0713 7.67625" stroke="black" stroke-width="2" stroke-linecap="round" stroke-linejoin="round"/>
<path d="M20.0713 8.07129V18.9549C20.0713 19.6765 19.8606 20.3686 19.4855 20.8788C19.1104 21.3891 18.6017 21.6758 18.0713 21.6758H6.07129C5.54086 21.6758 5.03215 21.3891 4.65708 20.8788C4.282 20.3686 4.07129 19.6765 4.07129 18.9549V8.07129" stroke="black" stroke-width="2" stroke-linecap="round" stroke-linejoin="round"/>
</svg>
