<svg width="25" height="25" viewBox="0 0 25 25" fill="none" xmlns="http://www.w3.org/2000/svg">
<path d="M21.7524 20.5509C20.353 18.1402 18.1129 16.3308 15.4618 15.4697C16.7325 14.714 17.7201 13.5621 18.2726 12.1907C18.8252 10.8194 18.9122 9.30459 18.5204 7.87899C18.1286 6.4534 17.2795 5.19588 16.1037 4.29963C14.9278 3.40338 13.4903 2.91797 12.0118 2.91797C10.5333 2.91797 9.09575 3.40338 7.91991 4.29963C6.74407 5.19588 5.89501 6.4534 5.50317 7.87899C5.11133 9.30459 5.19838 10.8194 5.75094 12.1907C6.30351 13.5621 7.29102 14.714 8.56179 15.4697C5.91063 16.3308 3.6706 18.1402 2.27116 20.5509C2.21246 20.6361 2.17201 20.7325 2.15235 20.834C2.13269 20.9356 2.13424 21.0401 2.15691 21.141C2.17957 21.2419 2.22287 21.337 2.28407 21.4204C2.34527 21.5038 2.42305 21.5736 2.51252 21.6254C2.602 21.6773 2.70124 21.7101 2.804 21.7218C2.90677 21.7335 3.01084 21.7238 3.10967 21.6933C3.2085 21.6628 3.29996 21.6122 3.37831 21.5447C3.45665 21.4772 3.52018 21.3942 3.56491 21.3009C4.42214 19.8197 5.65383 18.5899 7.13642 17.7349C8.619 16.8799 10.3003 16.4299 12.0118 16.4299C13.7232 16.4299 15.4046 16.8799 16.8872 17.7349C18.3697 18.5899 19.6014 19.8197 20.4587 21.3009C20.5034 21.3942 20.5669 21.4772 20.6453 21.5447C20.7236 21.6122 20.8151 21.6628 20.9139 21.6933C21.0127 21.7238 21.1168 21.7335 21.2196 21.7218C21.3223 21.7101 21.4216 21.6773 21.511 21.6254C21.6005 21.5736 21.6783 21.5038 21.7395 21.4204C21.8007 21.337 21.844 21.2419 21.8667 21.141C21.8893 21.0401 21.8909 20.9356 21.8712 20.834C21.8516 20.7325 21.8111 20.6361 21.7524 20.5509ZM6.76179 9.67594C6.76179 8.63759 7.06969 7.62256 7.64657 6.7592C8.22345 5.89584 9.04339 5.22293 10.0027 4.82557C10.962 4.42821 12.0176 4.32425 13.036 4.52682C14.0544 4.72939 14.9899 5.22941 15.7241 5.96363C16.4583 6.69786 16.9583 7.63332 17.1609 8.65172C17.3635 9.67012 17.2595 10.7257 16.8622 11.685C16.4648 12.6443 15.7919 13.4643 14.9285 14.0412C14.0652 14.618 13.0501 14.9259 12.0118 14.9259C10.6194 14.9259 9.28404 14.3728 8.29948 13.3883C7.31491 12.4037 6.76179 11.0683 6.76179 9.67594Z" fill="black" stroke="black"/>
</svg>
