<svg width="25" height="25" viewBox="0 0 25 25" fill="none" xmlns="http://www.w3.org/2000/svg">
<path d="M19.25 21.6757H5.25C4.98478 21.6757 4.73043 21.5703 4.54289 21.3828C4.35536 21.1953 4.25 20.9409 4.25 20.6757V11.6757H1.25L11.577 2.2877C11.7611 2.12018 12.0011 2.02734 12.25 2.02734C12.4989 2.02734 12.7389 2.12018 12.923 2.2877L23.25 11.6757H20.25V20.6757C20.25 20.9409 20.1446 21.1953 19.9571 21.3828C19.7696 21.5703 19.5152 21.6757 19.25 21.6757ZM13.25 19.6757H18.25V9.8327L12.25 4.3787L6.25 9.8327V19.6757H11.25V13.6757H13.25V19.6757Z" fill="black"/>
</svg>
